<?xml version="1.0" encoding="utf-8"?>
<!-- Generator: Adobe Illustrator 27.8.1, SVG Export Plug-In . SVG Version: 6.00 Build 0)  -->
<svg version="1.1" id="museum" xmlns="http://www.w3.org/2000/svg" x="0px"
     y="0px"
     viewBox="0 0 50 50" style="enable-background:new 0 0 50 50;" xml:space="preserve">
<style type="text/css">
	.st0{fill:#FFFFFF;}
</style>
    <path class="st0" d="M9.3,19h3.9l0.6,18h-5C8.7,37,9.3,19,9.3,19z M6,38h38v2h3v3h2v2H1v-2h2v-3h3V38z M46,13.8L25,5L4,13.8V15h42
	V13.8z M8,16h34v2H8V16z M36.7,19h3.9l0.6,18h-5L36.7,19z M27.6,19h3.9l0.6,18h-5L27.6,19z M18.4,19h3.9l0.6,18h-5
	C17.9,37,18.4,19,18.4,19z"/>
</svg>
